<svg id="Capa_1" enable-background="new 0 0 512 512" height="512" viewBox="0 0 512 512" width="512" xmlns="http://www.w3.org/2000/svg"><g><g><path d="m359.018 512c17.069 0 30.905-13.837 30.905-30.905v-30.905h-61.811v30.905c.001 17.068 13.837 30.905 30.906 30.905z" fill="#899bb0"/></g><g><path d="m359.018 481.095v-30.905h-30.905v30.905c0 17.069 13.837 30.905 30.905 30.905 5.631 0 10.906-1.514 15.453-4.145-9.235-5.344-15.453-15.323-15.453-26.76z" fill="#6c8199"/></g><g><path d="m152.982 512c-17.069 0-30.905-13.837-30.905-30.905v-30.905h61.811v30.905c-.001 17.068-13.837 30.905-30.906 30.905z" fill="#899bb0"/></g><g><path d="m152.982 481.095v-30.905h-30.905v30.905c0 17.069 13.837 30.905 30.905 30.905 5.631 0 10.906-1.514 15.453-4.145-9.235-5.344-15.453-15.323-15.453-26.76z" fill="#6c8199"/></g><g><path d="m431.131 185.433-175.131 30.905-175.131-30.905v-144.226c0-22.758 18.449-41.207 41.207-41.207h267.847c22.758 0 41.207 18.449 41.207 41.207v144.226z" fill="#50e3cf"/></g><g><path d="m142.68 41.207c0-22.758 18.449-41.207 41.207-41.207h-61.811c-22.758 0-41.207 18.449-41.207 41.207v144.225l61.811 10.908z" fill="#17d9bf"/></g><g><path d="m431.131 185.433h-350.262v244.153c0 22.758 18.449 41.207 41.207 41.207h267.847c22.758 0 41.207-18.449 41.207-41.207v-244.153z" fill="#17d9bf"/></g><g><path d="m142.68 429.586v-244.153h-61.811v244.153c0 22.758 18.449 41.207 41.207 41.207h61.811c-22.758 0-41.207-18.449-41.207-41.207z" fill="#0accab"/></g><g><g><g><ellipse cx="169.623" cy="116.974" fill="#fff" rx="31.872" ry="25.381"/></g><g><ellipse cx="342.377" cy="116.974" fill="#fff" rx="31.872" ry="25.381"/></g><g><ellipse cx="256" cy="97.472" fill="#423e4f" rx="16.918" ry="18.932"/></g></g><g><path d="m174.951 93.846c-4.142 0-7.5-3.357-7.5-7.5v-12.363c0-4.143 3.358-7.5 7.5-7.5s7.5 3.357 7.5 7.5v12.362c0 4.143-3.358 7.501-7.5 7.501z" fill="#423e4f"/></g><g><path d="m337.049 93.846c-4.142 0-7.5-3.357-7.5-7.5v-12.363c0-4.143 3.358-7.5 7.5-7.5s7.5 3.357 7.5 7.5v12.362c0 4.143-3.358 7.501-7.5 7.501z" fill="#423e4f"/></g></g><g><g><path d="m163.284 337.158h-10.302c-9.816 0-17.802-7.985-17.802-17.802v-61.812c0-9.816 7.986-17.802 17.802-17.802h10.302c4.142 0 7.5 3.357 7.5 7.5s-3.358 7.5-7.5 7.5h-10.302c-1.545 0-2.802 1.257-2.802 2.802v61.812c0 1.545 1.257 2.802 2.802 2.802h10.302c4.142 0 7.5 3.357 7.5 7.5s-3.358 7.5-7.5 7.5z" fill="#423e4f"/></g></g></g></svg>