<svg id="Layer_1" enable-background="new 0 0 512 512" height="512" viewBox="0 0 512 512" width="512" xmlns="http://www.w3.org/2000/svg"><g><path d="m7.5 60.522h497v320.342h-497z" fill="#5fe1ff"/><path d="m478.62 60.522h25.88v320.342h-25.88z" fill="#3eb6ff"/><path d="m177.057 107.614h157.987v196.621h-157.987z" fill="#ff6187"/><path d="m309.812 107.614h25.232v196.621h-25.232z" fill="#f42153"/><path d="m232.278 172.379v67.091l53.545-33.545z" fill="#dcf3ff"/><path d="m7.5 416.062h497v35.416h-497z" fill="#325a93"/><path d="m7.5 433.77h497v17.708h-497z" fill="#132d77"/><path d="m228.263 380.864h55.475v35.198h-55.475z" fill="#dcf3ff"/><path d="m52.462 194.904h78.183v51.432h-78.183z" fill="#3eb6ff"/><path d="m381.356 194.986h78.183v51.432h-78.183z" fill="#50ffb4"/><path d="m52.462 96.552h78.183v51.432h-78.183z" fill="#325a93"/><path d="m381.356 96.635h78.183v51.432h-78.183z" fill="#3eb6ff"/><path d="m52.462 293.174h78.183v51.432h-78.183z" fill="#50ffb4"/><path d="m381.356 293.256h78.183v51.432h-78.183z" fill="#325a93"/></g><g><path d="m504.5 388.364c4.143 0 7.5-3.358 7.5-7.5v-320.343c0-4.142-3.357-7.5-7.5-7.5h-44.962c-4.143 0-7.5 3.358-7.5 7.5s3.357 7.5 7.5 7.5h37.462v305.342h-482v-11.281c0-4.142-3.358-7.5-7.5-7.5s-7.5 3.358-7.5 7.5v18.781c0 4.142 3.358 7.5 7.5 7.5h213.263v20.198h-213.263c-4.142 0-7.5 3.358-7.5 7.5v35.417c0 4.142 3.358 7.5 7.5 7.5h35.866c4.142 0 7.5-3.358 7.5-7.5s-3.358-7.5-7.5-7.5h-28.366v-20.417h482v20.417h-418.995c-4.142 0-7.5 3.358-7.5 7.5s3.358 7.5 7.5 7.5h426.495c4.143 0 7.5-3.358 7.5-7.5v-35.417c0-4.142-3.357-7.5-7.5-7.5h-213.263v-20.198h213.263zm-228.263 20.198h-40.475v-20.198h40.475z"/><path d="m7.5 334.876c4.142 0 7.5-3.358 7.5-7.5v-259.355h410.205c4.143 0 7.5-3.358 7.5-7.5s-3.357-7.5-7.5-7.5h-417.705c-4.142 0-7.5 3.358-7.5 7.5v266.854c0 4.143 3.358 7.501 7.5 7.501z"/><path d="m335.044 145.114c4.143 0 7.5-3.358 7.5-7.5v-30c0-4.142-3.357-7.5-7.5-7.5h-157.987c-4.142 0-7.5 3.358-7.5 7.5v196.621c0 4.142 3.358 7.5 7.5 7.5h157.987c4.143 0 7.5-3.358 7.5-7.5v-131.59c0-4.142-3.357-7.5-7.5-7.5s-7.5 3.358-7.5 7.5v124.09h-142.987v-181.621h142.987v22.5c0 4.142 3.357 7.5 7.5 7.5z"/><path d="m138.145 194.904c0-4.142-3.358-7.5-7.5-7.5h-78.183c-4.142 0-7.5 3.358-7.5 7.5v51.432c0 4.142 3.358 7.5 7.5 7.5h78.183c4.142 0 7.5-3.358 7.5-7.5zm-15 43.932h-63.183v-36.432h63.183z"/><path d="m467.038 194.986c0-4.142-3.357-7.5-7.5-7.5h-78.183c-4.143 0-7.5 3.358-7.5 7.5v51.433c0 4.142 3.357 7.5 7.5 7.5h78.183c4.143 0 7.5-3.358 7.5-7.5zm-15 43.933h-63.183v-36.433h63.183z"/><path d="m138.145 96.552c0-4.142-3.358-7.5-7.5-7.5h-78.183c-4.142 0-7.5 3.358-7.5 7.5v51.433c0 4.142 3.358 7.5 7.5 7.5h78.183c4.142 0 7.5-3.358 7.5-7.5zm-15 43.933h-63.183v-36.433h63.183z"/><path d="m467.038 96.635c0-4.142-3.357-7.5-7.5-7.5h-78.183c-4.143 0-7.5 3.358-7.5 7.5v51.432c0 4.142 3.357 7.5 7.5 7.5h78.183c4.143 0 7.5-3.358 7.5-7.5zm-15 43.932h-63.183v-36.432h63.183z"/><path d="m130.645 285.673h-78.183c-4.142 0-7.5 3.358-7.5 7.5v51.433c0 4.142 3.358 7.5 7.5 7.5h78.183c4.142 0 7.5-3.358 7.5-7.5v-51.433c0-4.142-3.358-7.5-7.5-7.5zm-7.5 51.433h-63.183v-36.433h63.183z"/><path d="m459.538 285.756h-78.183c-4.143 0-7.5 3.358-7.5 7.5v51.432c0 4.142 3.357 7.5 7.5 7.5h78.183c4.143 0 7.5-3.358 7.5-7.5v-51.432c0-4.142-3.357-7.5-7.5-7.5zm-7.5 51.432h-63.183v-36.432h63.183z"/><path d="m177.057 326.167c-4.142 0-7.5 3.358-7.5 7.5s3.358 7.5 7.5 7.5h17.309c4.142 0 7.5-3.358 7.5-7.5s-3.358-7.5-7.5-7.5z"/><path d="m223.676 326.25c-4.142 0-7.5 3.358-7.5 7.5s3.358 7.5 7.5 7.5h17.309c4.142 0 7.5-3.358 7.5-7.5s-3.358-7.5-7.5-7.5z"/><path d="m271.116 326.209c-4.143 0-7.5 3.358-7.5 7.5s3.357 7.5 7.5 7.5h17.31c4.143 0 7.5-3.358 7.5-7.5s-3.357-7.5-7.5-7.5z"/><path d="m335.044 326.291h-17.31c-4.143 0-7.5 3.358-7.5 7.5s3.357 7.5 7.5 7.5h17.31c4.143 0 7.5-3.358 7.5-7.5s-3.357-7.5-7.5-7.5z"/><path d="m236.26 166.023c-2.312-1.448-5.227-1.528-7.614-.206-2.387 1.321-3.868 3.833-3.868 6.562v67.091c0 2.728 1.481 5.241 3.868 6.562 1.132.627 2.383.938 3.632.938 1.385 0 2.767-.383 3.982-1.144l53.545-33.545c2.189-1.372 3.519-3.773 3.519-6.356s-1.329-4.984-3.519-6.355zm3.518 59.898v-39.994l31.918 19.997z"/></g></svg>